<svg xmlns="http://www.w3.org/2000/svg" viewBox="0 0 280 72" fill="none" role="img" aria-label="FEBiS">
  <defs>
    <linearGradient id="febisGold" x1="12" y1="8" x2="88" y2="68" gradientUnits="userSpaceOnUse">
      <stop stop-color="#9a6b1f"/>
      <stop offset="0.35" stop-color="#f0d78c"/>
      <stop offset="0.65" stop-color="#d4a84b"/>
      <stop offset="1" stop-color="#b8862e"/>
    </linearGradient>
  </defs>
  <path
    d="M14 58c6-18 18-34 40-42 10-4 22-2 28 8-8-6-20-8-30-2-12 7-20 20-24 36 8 2 18 2 28-2-14 8-28 12-42 2z"
    fill="url(#febisGold)"
  />
  <path
    d="M30 56c6-16 16-30 36-36 9-3 19-1 24 8-7-5-17-7-26-2-11 6-18 17-22 30 7 1 15 1 24-2-12 7-24 10-36 2z"
    fill="url(#febisGold)"
    opacity="0.9"
  />
  <g font-family="Arial Black, Arial, Helvetica, sans-serif" font-size="34" font-weight="800">
    <text x="96" y="48" fill="#1a1210">FEB</text>
    <text x="168" y="48" fill="#1a1210">i</text>
    <circle cx="174.5" cy="20" r="4.2" fill="url(#febisGold)"/>
    <text x="182" y="48" fill="#1a1210">S</text>
  </g>
</svg>
